# xmcd
#
# Track frame offsets: 
#        150
#        14328
#        26143
#        37157
#        50427
#        63793
#        75985
#        85117
#        94877
#        106808
#        119057
#        132724
#        145451
#        156086
#        168469
#        177765
#        188749
#        199870
#        212781
#        224843
#        234167
#        245085
#        256113
#        267283
#
# Disc length: 3718 seconds
#
# Revision: 2
# Processed by: cddbd v1.5.2PL0 Copyright (c) Steve Scherf et al.
# Submitted via: ExactAudioCopyFreeDBPlugin 1.0
#
DISCID=5f0e8418
DTITLE=Various Artist - Bluesoul Belles:  The Complete Calla, Port and 
DTITLE=Roulette Recordings
DYEAR=2005
DGENRE=Soul
TTITLE0=Betty Lavette - Let Me Down Easy
TTITLE1=Betty Lavette - Only Your Love Can Save Me
TTITLE2=Betty Lavette - Stand Up Like a Man
TTITLE3=Betty Lavette - What I Don't Know (Won't Hurt Me)
TTITLE4=Betty Lavette - Cry Me a River
TTITLE5=Betty Lavette - She Don't Love You Like I Love You
TTITLE6=Betty Lavette - I Feel Good All Over
TTITLE7=Betty Lavette - I'm Just a Fool for You
TTITLE8=Carol Fran - A World Without You
TTITLE9=Carol Fran - It's My Turn
TTITLE10=Carol Fran - Just a Letter
TTITLE11=Carol Fran - Any Day Love Walks In
TTITLE12=Carol Fran - C'mon Let's Make Up
TTITLE13=Carol Fran - So Close
TTITLE14=Carol Fran - Roll With the Punches
TTITLE15=Carol Fran - My Runaway Heart
TTITLE16=Carol Fran - You're My Pleasure
TTITLE17=Carol Fran - A Woman in Love
TTITLE18=Carol Fran - I Was Such a Fool
TTITLE19=Carol Fran - Out of Sight, Out of Mind
TTITLE20=Carol Fran - You Can't Stop Me
TTITLE21=Carol Fran - I Know
TTITLE22=Carol Fran - I'm Gonna Try
TTITLE23=Carol Fran - Crying in the Chapel
EXTD=Betty Lavette =Bettye Lavette
EXTT0=
EXTT1=
EXTT2=
EXTT3=
EXTT4=tk 1
EXTT5=tk 5
EXTT6=tk 1
EXTT7=tk 2
EXTT8=tk 4
EXTT9=tk 4
EXTT10=tk 10
EXTT11=
EXTT12=tk 2
EXTT13=tk 1
EXTT14=tk 3
EXTT15=tk 1
EXTT16=tk 2
EXTT17=tk 1
EXTT18=tk 1
EXTT19=tk 2
EXTT20=tk 2
EXTT21=tk 1
EXTT22=
EXTT23=
PLAYORDER=
